<svg width="310" height="60" viewBox="0 0 310 60" fill="none" xmlns="http://www.w3.org/2000/svg">
<path d="M295.266 26.5332C300.903 10.7148 288.903 1.39308 280.163 1.39453C272.689 1.39577 272.403 5.21484 278.766 8.39395C269.662 9.39395 274.245 14.8739 279.531 18.7163C271.903 20.2163 272.403 23.2163 278.766 26.5332C263.405 24.5 269 26.5332 273.497 29.2163C263.498 28 265.498 31.2152 273.494 33C263.5 34.5 269.494 36.0334 278.766 36.0334C268.766 40.5327 276.697 42.5523 278.766 44.5327C268.643 48.5327 275.971 50.6354 278.766 52.0327C274.766 53.5327 272.143 56.7291 278.766 59.0327C292.766 60.5327 300.266 48.0327 295.266 36.0334C298.599 36.0334 303.903 34.2232 303.903 31.2152C303.903 28.2071 300.266 26.5334 295.266 26.5332Z" stroke="#246286"/>
<path d="M303.906 29.7148L308.906 31.2148L303.906 32.2148" stroke="#246286"/>
<circle cx="298.74" cy="30.5482" r="0.833333" fill="#246286"/>
<line y1="-0.5" x2="3.22268" y2="-0.5" transform="matrix(0.999831 0.0183854 0.0552796 0.998471 281.359 16.7559)" stroke="#246286"/>
<line y1="-0.5" x2="3.22268" y2="-0.5" transform="matrix(0.999831 0.0183854 0.0552796 0.998471 281.812 12.002)" stroke="#246286"/>
<path d="M281 20.3613L284.219 20.8173" stroke="#246286"/>
<line y1="-0.5" x2="3.24235" y2="-0.5" transform="matrix(0.995794 -0.0916248 0.0219808 0.999758 281.492 42.2969)" stroke="#246286"/>
<line y1="-0.5" x2="3.24235" y2="-0.5" transform="matrix(0.995794 -0.0916248 0.0219808 0.999758 281 45.7969)" stroke="#246286"/>
<line y1="-0.5" x2="3.24235" y2="-0.5" transform="matrix(0.995794 -0.0916248 0.0219808 0.999758 282.156 50.1719)" stroke="#246286"/>
<path d="M1 30.4148C59.2105 32.3679 88.6814 14.2841 115.947 12.3486C157.211 9.41932 183.359 25.7829 205.105 30.4148C225.737 34.8093 240.474 28.4622 253 30.4148" stroke="#246286" stroke-dasharray="2 4 6 8"/>
</svg>
