<svg width="21" height="16" viewBox="0 0 21 16" fill="none" xmlns="http://www.w3.org/2000/svg">
<path d="M5.00935 15.4995C5.00935 15.4995 0.641585 4.71484 2.24391 4.71484C3.84623 4.71484 6.68145 9.9785 6.68145 9.9785C6.68145 9.9785 8.95324 4.71484 10.5006 4.71484C11.6355 4.71484 13.0804 9.9785 13.0804 9.9785C13.0804 9.9785 15.7638 4.71484 17.7252 4.71484C18.4477 4.71484 14.8818 15.4995 14.8818 15.4995H5.00935Z" fill="#246286" stroke="#246286"/>
<path d="M1.83464 2.96189C0.596107 2.96189 0.855086 1.31055 1.83422 1.31055C3.17553 1.31055 3.07317 2.96189 1.83464 2.96189Z" fill="#246286" stroke="#246286"/>
<path d="M9.96692 2.75455C8.72843 2.75455 8.98847 1.00001 9.96758 1C11.2057 0.999987 11.2054 2.75455 9.96692 2.75455Z" fill="#246286" stroke="#246286"/>
<path d="M18.5864 3.16861C17.3479 3.16861 17.8552 1.41406 18.5871 1.41406C19.8252 1.41406 19.8249 3.16861 18.5864 3.16861Z" fill="#246286" stroke="#246286"/>
</svg>
